<svg width="60" height="60" viewBox="0 0 60 60" fill="none" xmlns="http://www.w3.org/2000/svg">
<circle cx="30" cy="30" r="30" fill="#121212" fill-opacity="0.1"/>
<path d="M36.888 27.976C37.092 27.312 37.2 26.64 37.2 25.976C37.2 23.404 35.228 21.312 32.8 21.312C31.148 21.312 29.632 22.212 28.8 23.62C27.968 22.212 26.452 21.312 24.8 21.312C22.372 21.312 20.4 23.404 20.4 25.976C20.4 31.84 28.276 36.104 28.612 36.284C28.672 36.316 28.736 36.332 28.8 36.332C28.864 36.332 28.928 36.316 28.988 36.284C29 36.276 29.288 36.124 29.744 35.84C31.344 37.52 33.272 38.568 33.412 38.64C33.472 38.672 33.536 38.688 33.6 38.688C33.664 38.688 33.728 38.672 33.788 38.64C34.024 38.516 39.6 35.492 39.6 31.32C39.6 29.628 38.42 28.228 36.888 27.976ZM28.8 35.472C27.612 34.792 21.2 30.884 21.2 25.976C21.2 23.844 22.816 22.112 24.8 22.112C26.14 22.112 27.78 22.908 28.424 24.692C28.48 24.852 28.632 24.956 28.8 24.956C28.968 24.956 29.12 24.852 29.176 24.692C29.82 22.908 31.46 22.112 32.8 22.112C34.784 22.112 36.4 23.844 36.4 25.976C36.4 26.632 36.28 27.296 36.052 27.956C35.056 28.06 34.156 28.612 33.6 29.444C32.98 28.516 31.932 27.932 30.8 27.932C29.036 27.932 27.6 29.452 27.6 31.32C27.6 32.796 28.296 34.124 29.204 35.232C29.04 35.332 28.9 35.416 28.8 35.472ZM33.6 37.828C32.644 37.272 28.4 34.616 28.4 31.32C28.4 29.892 29.476 28.732 30.8 28.732C31.696 28.732 32.792 29.264 33.224 30.46C33.28 30.62 33.432 30.724 33.6 30.724C33.768 30.724 33.92 30.62 33.976 30.46C34.408 29.268 35.504 28.732 36.4 28.732C37.724 28.732 38.8 29.892 38.8 31.32C38.8 34.616 34.556 37.272 33.6 37.828Z" fill="black"/>
</svg>
