<svg width="60" height="60" viewBox="0 0 60 60" fill="none" xmlns="http://www.w3.org/2000/svg">
<circle cx="30" cy="30" r="30" fill="#121212" fill-opacity="0.1"/>
<g clip-path="url(#clip0_12_4988)">
<path d="M34.5348 31.6629H22.1615L32.8762 24.8504C32.9074 24.8306 32.9343 24.8048 32.9556 24.7746C32.9768 24.7443 32.9918 24.7102 32.9999 24.6741C33.0079 24.6381 33.0087 24.6008 33.0023 24.5644C32.996 24.528 32.9825 24.4932 32.9626 24.4621L31.9011 22.7925C31.659 22.4126 31.2761 22.1443 30.8364 22.0464C30.3967 21.9485 29.9362 22.029 29.5558 22.2703L28.048 23.2289L28.1675 22.6575C28.2145 22.4509 28.2203 22.237 28.1845 22.0282C28.1487 21.8193 28.0719 21.6196 27.9587 21.4405C27.8454 21.2614 27.6979 21.1064 27.5246 20.9845C27.3513 20.8626 27.1556 20.7761 26.9487 20.7301C26.7419 20.684 26.528 20.6793 26.3193 20.7162C26.1107 20.7531 25.9113 20.8308 25.7328 20.9449C25.5543 21.0591 25.4001 21.2074 25.279 21.3813C25.158 21.5552 25.0725 21.7513 25.0274 21.9584L24.2442 25.4765L21.6215 24.8928C21.2303 24.8056 20.8208 24.8676 20.4729 25.0665C20.1251 25.2655 19.864 25.5871 19.7409 25.9684C19.6177 26.3498 19.6414 26.7633 19.8071 27.1282C19.9729 27.493 20.2689 27.7828 20.6371 27.9409L19.0219 28.9679C18.642 29.21 18.3737 29.5929 18.2758 30.0325C18.1779 30.4722 18.2584 30.9328 18.4997 31.3131L19.5613 32.9828C19.5811 33.014 19.6068 33.0409 19.6371 33.0621C19.6673 33.0834 19.7014 33.0984 19.7375 33.1064C19.7735 33.1145 19.8108 33.1153 19.8472 33.1089C19.8836 33.1026 19.9184 33.0891 19.9495 33.0693L20.9377 32.4411V39.5609C20.9382 40.0113 21.1173 40.4432 21.4359 40.7617C21.7544 41.0802 22.1862 41.2593 22.6367 41.2598H33.1172C33.5676 41.2593 33.9994 41.0802 34.318 40.7617C34.6365 40.4432 34.8156 40.0113 34.8161 39.5609V31.9442C34.8161 31.9072 34.8088 31.8707 34.7947 31.8365C34.7806 31.8024 34.7598 31.7714 34.7337 31.7453C34.7076 31.7191 34.6766 31.6984 34.6424 31.6843C34.6083 31.6702 34.5717 31.6629 34.5348 31.6629ZM29.8576 22.745C30.039 22.629 30.2498 22.5673 30.4651 22.5672C30.549 22.5672 30.6325 22.5765 30.7143 22.5947C30.8601 22.6268 30.9982 22.6875 31.1204 22.7732C31.2426 22.859 31.3466 22.9681 31.4264 23.0943L32.337 24.5266L27.9074 27.3431L26.3869 24.9518L29.8576 22.745ZM25.5765 22.0807C25.6373 21.81 25.8031 21.5746 26.0374 21.4261C26.2718 21.2777 26.5555 21.2284 26.8262 21.2892C27.0969 21.35 27.3323 21.5158 27.4807 21.7501C27.6292 21.9845 27.6784 22.2682 27.6177 22.5389L27.3868 23.6435L24.8711 25.2489L25.5765 22.0807ZM25.9121 25.2537L27.4326 27.6449L24.8657 29.2769L23.3453 26.8857L25.9121 25.2537ZM20.3893 27.024C20.2783 26.8495 20.2215 26.6459 20.2262 26.4391C20.2309 26.2322 20.2968 26.0314 20.4156 25.8621C20.5344 25.6927 20.7008 25.5624 20.8937 25.4876C21.0866 25.4128 21.2973 25.3969 21.4992 25.4418L23.7719 25.9478L21.249 27.5293L21.0446 27.4837C20.9104 27.4542 20.7834 27.3984 20.6709 27.3195C20.5584 27.2406 20.4627 27.1402 20.3893 27.024ZM19.8851 32.4437L18.9745 31.0114C18.8131 30.7569 18.7592 30.4489 18.8247 30.1548C18.8902 29.8607 19.0696 29.6046 19.3237 29.4426L22.8706 27.1875L24.391 29.5788L19.8851 32.4437ZM25.3392 40.6973H22.6367C22.3354 40.697 22.0465 40.5771 21.8335 40.3641C21.6204 40.151 21.5006 39.8622 21.5002 39.5609V32.2254H25.3393L25.3392 40.6973ZM28.914 40.6973H25.9017V32.2254H28.914V40.6973ZM34.2535 39.5609C34.2532 39.8622 34.1333 40.151 33.9203 40.3641C33.7073 40.5771 33.4185 40.697 33.1172 40.6973H29.4765V32.2254H34.2535V39.5609Z" fill="black"/>
<path d="M37.6797 29.108L37.8142 28.3235C37.8231 28.2718 37.8173 28.2187 37.7975 28.1701C37.7778 28.1215 37.7448 28.0794 37.7024 28.0486C37.6599 28.0177 37.6097 27.9994 37.5574 27.9956C37.5051 27.9918 37.4527 28.0027 37.4063 28.0271L36.7018 28.3974L35.9973 28.0271C35.9509 28.0026 35.8985 27.9917 35.8462 27.9955C35.7938 27.9993 35.7436 28.0176 35.7011 28.0485C35.6587 28.0793 35.6257 28.1214 35.6059 28.17C35.5862 28.2186 35.5804 28.2718 35.5893 28.3235L35.7238 29.108L35.1539 29.6635C35.1163 29.7001 35.0897 29.7465 35.0771 29.7975C35.0645 29.8484 35.0665 29.9019 35.0827 29.9518C35.0989 30.0017 35.1287 30.0461 35.1689 30.0799C35.209 30.1138 35.2578 30.1357 35.3097 30.1432L36.0972 30.2577L36.4495 30.9714C36.4727 31.0185 36.5086 31.0581 36.5532 31.0858C36.5978 31.1135 36.6492 31.1282 36.7017 31.1282C36.7542 31.1282 36.8056 31.1135 36.8502 31.0858C36.8948 31.0581 36.9307 31.0185 36.9539 30.9714L37.3061 30.2577L38.0936 30.1432C38.1455 30.1357 38.1943 30.1138 38.2345 30.0799C38.2746 30.0461 38.3045 30.0017 38.3207 29.9518C38.3369 29.9019 38.3388 29.8484 38.3262 29.7975C38.3136 29.7465 38.287 29.7001 38.2495 29.6635L37.6797 29.108ZM37.0789 29.7221C37.0338 29.7286 36.9909 29.746 36.954 29.7728C36.9171 29.7996 36.8873 29.835 36.8671 29.8759L36.7017 30.2112L36.5362 29.8759C36.516 29.835 36.4862 29.7997 36.4493 29.7729C36.4125 29.7461 36.3696 29.7286 36.3245 29.7221L35.9545 29.6683L36.2222 29.4073C36.2549 29.3755 36.2793 29.3362 36.2934 29.2929C36.3075 29.2495 36.3108 29.2033 36.3031 29.1584L36.2399 28.7899L36.5708 28.9638C36.6112 28.9851 36.6561 28.9962 36.7017 28.9962C36.7473 28.9962 36.7922 28.9851 36.8326 28.9638L37.1635 28.7899L37.1003 29.1584C37.0926 29.2033 37.0959 29.2495 37.11 29.2929C37.1241 29.3362 37.1485 29.3755 37.1811 29.4073L37.4489 29.6683L37.0789 29.7221Z" fill="black"/>
<path d="M40.9144 25.2328L40.141 25.0448L39.8573 24.3013C39.8386 24.2522 39.8066 24.2094 39.7648 24.1776C39.723 24.1458 39.6732 24.1264 39.621 24.1214C39.5687 24.1165 39.5161 24.1263 39.4691 24.1497C39.4221 24.1731 39.3826 24.2092 39.3551 24.2538L38.9374 24.9313L38.1425 24.9713C38.0901 24.9739 38.0395 24.9912 37.9964 25.0211C37.9533 25.051 37.9194 25.0924 37.8985 25.1405C37.8777 25.1887 37.8708 25.2417 37.8785 25.2936C37.8862 25.3455 37.9083 25.3942 37.9423 25.4342L38.4575 26.0408L38.25 26.8091C38.2363 26.8598 38.237 26.9133 38.2522 26.9635C38.2673 27.0138 38.2962 27.0588 38.3355 27.0935C38.3749 27.1282 38.4232 27.1512 38.4749 27.1599C38.5267 27.1686 38.5799 27.1626 38.6284 27.1426L39.3643 26.8401L40.0312 27.275C40.0752 27.3036 40.1263 27.3194 40.1787 27.3206C40.2312 27.3217 40.2829 27.3082 40.3281 27.2815C40.3733 27.2548 40.4101 27.2159 40.4343 27.1694C40.4586 27.1229 40.4693 27.0705 40.4653 27.0181L40.4051 26.2245L41.0245 25.725C41.0653 25.6921 41.0961 25.6484 41.1134 25.5988C41.1307 25.5493 41.1338 25.4959 41.1224 25.4447C41.1109 25.3935 41.0854 25.3465 41.0486 25.3091C41.0119 25.2716 40.9654 25.2452 40.9144 25.2328ZM39.9368 25.8797C39.9013 25.9083 39.8733 25.9451 39.8552 25.987C39.8371 26.0288 39.8294 26.0745 39.8329 26.1199L39.861 26.4927L39.5479 26.2884C39.5097 26.2635 39.466 26.2482 39.4206 26.244C39.3752 26.2397 39.3294 26.2465 39.2873 26.2638L38.9415 26.406L39.039 26.045C39.0509 26.001 39.0519 25.9548 39.042 25.9103C39.032 25.8658 39.0114 25.8243 38.9819 25.7896L38.7399 25.5046L39.1133 25.4859C39.1588 25.4836 39.2031 25.4703 39.2424 25.4471C39.2816 25.4239 39.3147 25.3915 39.3386 25.3527L39.5348 25.0344L39.668 25.3838C39.6842 25.4263 39.7106 25.4644 39.7448 25.4945C39.779 25.5246 39.8201 25.546 39.8644 25.5568L40.2277 25.6451L39.9368 25.8797Z" fill="black"/>
<path d="M36.7781 20.6608L36.5705 21.429C36.5568 21.4797 36.5575 21.5332 36.5726 21.5835C36.5878 21.6337 36.6166 21.6787 36.656 21.7135C36.6954 21.7482 36.7437 21.7712 36.7954 21.7798C36.8472 21.7885 36.9004 21.7826 36.9489 21.7626L37.6848 21.46L38.3515 21.895C38.3954 21.9236 38.4465 21.9394 38.499 21.9406C38.5514 21.9417 38.6032 21.9282 38.6484 21.9015C38.6935 21.8747 38.7303 21.8359 38.7546 21.7894C38.7788 21.7428 38.7895 21.6904 38.7856 21.6381L38.7253 20.8445L39.3448 20.3449C39.3857 20.312 39.4165 20.2683 39.4338 20.2187C39.4511 20.1692 39.4542 20.1158 39.4427 20.0646C39.4313 20.0134 39.4057 19.9664 39.369 19.929C39.3322 19.8915 39.2857 19.8651 39.2348 19.8527L38.4613 19.6648L38.1777 18.9212C38.159 18.8721 38.127 18.8293 38.0852 18.7975C38.0434 18.7658 37.9936 18.7463 37.9413 18.7414C37.8891 18.7365 37.8365 18.7463 37.7895 18.7697C37.7425 18.7931 37.7031 18.8291 37.6755 18.8738L37.2579 19.5513L36.463 19.5912C36.4105 19.5938 36.3599 19.6111 36.3168 19.641C36.2737 19.6709 36.2398 19.7123 36.2189 19.7604C36.1981 19.8086 36.1911 19.8616 36.1989 19.9135C36.2066 19.9654 36.2287 20.0141 36.2627 20.0541L36.7781 20.6608ZM37.4339 20.1056C37.4795 20.1033 37.5238 20.09 37.563 20.0667C37.6023 20.0435 37.6353 20.0111 37.6592 19.9723L37.8554 19.6541L37.9886 20.0034C38.0049 20.046 38.0313 20.084 38.0655 20.1141C38.0997 20.1443 38.1407 20.1657 38.185 20.1764L38.5483 20.2647L38.2573 20.4994C38.2218 20.528 38.1938 20.5648 38.1757 20.6067C38.1576 20.6485 38.1499 20.6941 38.1534 20.7396L38.1815 21.1124L37.8683 20.9081C37.8301 20.8832 37.7865 20.868 37.7411 20.8637C37.6957 20.8594 37.6499 20.8662 37.6077 20.8835L37.262 21.0257L37.3595 20.6647C37.3714 20.6207 37.3724 20.5745 37.3625 20.5299C37.3525 20.4854 37.3319 20.444 37.3023 20.4093L37.0603 20.1243L37.4339 20.1056Z" fill="black"/>
<path d="M31.6756 29.1485C31.0406 29.5481 30.7304 30.0323 30.7175 30.0528C30.6776 30.1158 30.6643 30.1921 30.6806 30.2649C30.6969 30.3376 30.7414 30.401 30.8044 30.4409C30.8674 30.4809 30.9437 30.4942 31.0165 30.4779C31.0893 30.4616 31.1526 30.417 31.1925 30.3541C31.2347 30.2884 32.2523 28.7502 34.4672 29.2981C34.5394 29.3152 34.6153 29.3032 34.6786 29.2646C34.742 29.226 34.7875 29.164 34.8053 29.092C34.8231 29.0201 34.8118 28.944 34.7738 28.8803C34.7358 28.8167 34.6742 28.7706 34.6024 28.7521C33.2396 28.4149 32.2586 28.7815 31.6756 29.1485Z" fill="black"/>
<path d="M37.0125 26.17C37.0814 26.1986 37.1588 26.1986 37.2278 26.1701C37.2967 26.1416 37.3515 26.0869 37.3801 26.018C37.4087 25.9491 37.4087 25.8717 37.3802 25.8027C37.3517 25.7338 37.297 25.679 37.2281 25.6504C35.2259 24.8195 33.7707 25.4417 32.9025 26.1102C32.3265 26.5581 31.8498 27.1207 31.5024 27.7623C31.486 27.7954 31.4763 27.8314 31.4737 27.8682C31.4712 27.9051 31.476 27.9421 31.4878 27.9771C31.4995 28.0121 31.5181 28.0444 31.5424 28.0723C31.5666 28.1001 31.5962 28.1229 31.6293 28.1393C31.6623 28.1557 31.6983 28.1655 31.7352 28.168C31.772 28.1705 31.809 28.1658 31.844 28.154C31.879 28.1422 31.9114 28.1237 31.9392 28.0994C31.967 28.0751 31.9898 28.0456 32.0062 28.0125C32.3162 27.4478 32.7379 26.9522 33.2456 26.5559C34.3372 25.7156 35.6046 25.5857 37.0125 26.17Z" fill="black"/>
<path d="M33.8521 24.0864C33.8291 24.1574 33.8353 24.2346 33.8693 24.301C33.9032 24.3674 33.9622 24.4176 34.0331 24.4406C34.4203 24.5547 34.8219 24.6127 35.2255 24.6129C35.6959 24.6129 36.2391 24.528 36.7262 24.2393C37.3637 23.8615 37.7725 23.218 37.9419 22.3268C37.9489 22.2904 37.9487 22.253 37.9413 22.2168C37.9339 22.1805 37.9193 22.1461 37.8986 22.1154C37.8778 22.0848 37.8512 22.0585 37.8202 22.0382C37.7893 22.0179 37.7546 22.0039 37.7183 21.9969C37.6819 21.99 37.6445 21.9904 37.6083 21.9979C37.572 22.0055 37.5377 22.0202 37.5071 22.041C37.4765 22.0619 37.4504 22.0886 37.4302 22.1197C37.41 22.1507 37.3961 22.1854 37.3893 22.2218C37.2516 22.9465 36.9328 23.4621 36.4419 23.7541C35.5081 24.3097 34.2262 23.9119 34.2059 23.9055C34.135 23.8826 34.0579 23.8888 33.9916 23.9227C33.9252 23.9567 33.8751 24.0155 33.8521 24.0864Z" fill="black"/>
<path d="M30.1344 31.3534C30.2346 31.3534 30.3325 31.3237 30.4158 31.2681C30.4991 31.2124 30.5641 31.1333 30.6024 31.0408C30.6408 30.9482 30.6508 30.8464 30.6313 30.7481C30.6117 30.6498 30.5635 30.5596 30.4926 30.4887C30.4218 30.4179 30.3316 30.3696 30.2333 30.3501C30.135 30.3306 30.0332 30.3406 29.9406 30.3789C29.8481 30.4173 29.769 30.4822 29.7133 30.5655C29.6576 30.6488 29.6279 30.7467 29.6279 30.8469C29.6281 30.9812 29.6815 31.1099 29.7765 31.2049C29.8714 31.2998 30.0001 31.3533 30.1344 31.3534ZM30.1344 30.7909C30.1455 30.7909 30.1563 30.7942 30.1656 30.8003C30.1748 30.8065 30.182 30.8152 30.1862 30.8255C30.1904 30.8357 30.1916 30.847 30.1894 30.8579C30.1872 30.8687 30.1819 30.8787 30.1741 30.8865C30.1662 30.8944 30.1562 30.8997 30.1454 30.9019C30.1345 30.904 30.1232 30.9029 30.113 30.8987C30.1028 30.8944 30.094 30.8873 30.0879 30.878C30.0817 30.8688 30.0784 30.858 30.0784 30.8469C30.0785 30.8321 30.0844 30.8179 30.0949 30.8074C30.1054 30.7969 30.1196 30.791 30.1344 30.7909Z" fill="black"/>
<path d="M34.1197 22.1659C34.2199 22.1659 34.3178 22.1362 34.4011 22.0806C34.4844 22.0249 34.5493 21.9458 34.5877 21.8532C34.626 21.7607 34.636 21.6588 34.6165 21.5606C34.5969 21.4623 34.5487 21.3721 34.4779 21.3012C34.407 21.2304 34.3168 21.1821 34.2185 21.1626C34.1203 21.1431 34.0184 21.1531 33.9258 21.1914C33.8333 21.2298 33.7542 21.2947 33.6985 21.378C33.6429 21.4613 33.6132 21.5592 33.6132 21.6594C33.6133 21.7937 33.6667 21.9224 33.7617 22.0174C33.8566 22.1124 33.9854 22.1658 34.1197 22.1659ZM34.1197 21.6034C34.1308 21.6034 34.1416 21.6067 34.1508 21.6129C34.16 21.619 34.1672 21.6278 34.1714 21.638C34.1757 21.6483 34.1768 21.6595 34.1746 21.6704C34.1725 21.6813 34.1671 21.6912 34.1593 21.6991C34.1514 21.7069 34.1415 21.7122 34.1306 21.7144C34.1197 21.7165 34.1085 21.7154 34.0982 21.7112C34.088 21.7069 34.0792 21.6997 34.0731 21.6905C34.0669 21.6813 34.0637 21.6705 34.0637 21.6594C34.0637 21.6446 34.0697 21.6304 34.0802 21.6199C34.0907 21.6094 34.1049 21.6035 34.1197 21.6034Z" fill="black"/>
<path d="M41.2591 21.7797C41.1589 21.7797 41.061 21.8094 40.9777 21.865C40.8944 21.9207 40.8295 21.9998 40.7911 22.0924C40.7528 22.1849 40.7428 22.2868 40.7623 22.385C40.7818 22.4833 40.8301 22.5735 40.9009 22.6444C40.9718 22.7152 41.062 22.7635 41.1603 22.783C41.2586 22.8025 41.3604 22.7925 41.453 22.7542C41.5455 22.7158 41.6246 22.6509 41.6803 22.5676C41.7359 22.4843 41.7656 22.3863 41.7656 22.2861C41.7655 22.1519 41.7121 22.0231 41.6171 21.9282C41.5221 21.8332 41.3934 21.7798 41.2591 21.7797ZM41.2591 22.3422C41.248 22.3422 41.2372 22.3389 41.228 22.3327C41.2188 22.3266 41.2116 22.3178 41.2073 22.3076C41.2031 22.2973 41.202 22.2861 41.2042 22.2752C41.2063 22.2644 41.2117 22.2544 41.2195 22.2465C41.2273 22.2387 41.2373 22.2334 41.2482 22.2312C41.259 22.229 41.2703 22.2302 41.2805 22.2344C41.2908 22.2386 41.2995 22.2458 41.3057 22.255C41.3118 22.2642 41.3151 22.2751 41.3151 22.2861C41.315 22.301 41.3091 22.3152 41.2986 22.3257C41.2881 22.3362 41.2739 22.3421 41.2591 22.3422Z" fill="black"/>
<path d="M29.9271 28.5013C29.9271 28.4011 29.8973 28.3031 29.8417 28.2198C29.786 28.1365 29.7069 28.0716 29.6143 28.0333C29.5217 27.9949 29.4199 27.9849 29.3216 28.0045C29.2233 28.024 29.1331 28.0723 29.0623 28.1432C28.9914 28.214 28.9432 28.3043 28.9237 28.4026C28.9042 28.5009 28.9143 28.6027 28.9526 28.6953C28.991 28.7878 29.056 28.8669 29.1393 28.9226C29.2227 28.9782 29.3206 29.0078 29.4208 29.0078C29.5551 29.0076 29.6838 28.9541 29.7787 28.8592C29.8736 28.7642 29.9269 28.6355 29.9271 28.5013ZM29.4208 28.5575C29.4097 28.5575 29.3989 28.5542 29.3897 28.5481C29.3805 28.542 29.3733 28.5332 29.3691 28.523C29.3648 28.5128 29.3637 28.5015 29.3658 28.4907C29.3679 28.4798 29.3733 28.4698 29.3811 28.462C29.3889 28.4541 29.3988 28.4488 29.4097 28.4466C29.4205 28.4444 29.4318 28.4455 29.442 28.4497C29.4523 28.4539 29.461 28.461 29.4672 28.4702C29.4734 28.4794 29.4767 28.4902 29.4768 28.5013C29.4767 28.5161 29.4708 28.5304 29.4602 28.5409C29.4497 28.5514 29.4354 28.5573 29.4206 28.5573L29.4208 28.5575Z" fill="black"/>
<path d="M40.425 28.8193C40.3248 28.8193 40.2269 28.849 40.1436 28.9047C40.0603 28.9603 39.9954 29.0394 39.957 29.132C39.9187 29.2246 39.9086 29.3264 39.9282 29.4247C39.9477 29.5229 39.996 29.6132 40.0668 29.684C40.1377 29.7548 40.2279 29.8031 40.3262 29.8226C40.4244 29.8422 40.5263 29.8321 40.6188 29.7938C40.7114 29.7555 40.7905 29.6905 40.8462 29.6073C40.9018 29.524 40.9315 29.426 40.9315 29.3258C40.9314 29.1915 40.878 29.0628 40.783 28.9678C40.688 28.8729 40.5593 28.8195 40.425 28.8193ZM40.425 29.3818C40.4139 29.3818 40.4031 29.3785 40.3939 29.3724C40.3847 29.3662 40.3775 29.3575 40.3733 29.3472C40.3691 29.337 40.368 29.3257 40.3701 29.3149C40.3723 29.304 40.3776 29.2941 40.3855 29.2862C40.3933 29.2784 40.4033 29.2731 40.4141 29.2709C40.425 29.2688 40.4362 29.2699 40.4465 29.2741C40.4567 29.2784 40.4654 29.2855 40.4716 29.2947C40.4777 29.304 40.481 29.3148 40.481 29.3258C40.4809 29.3407 40.475 29.3549 40.4645 29.3653C40.454 29.3758 40.4398 29.3817 40.425 29.3818Z" fill="black"/>
</g>
<defs>
<clipPath id="clip0_12_4988">
<rect width="24" height="24" fill="white" transform="translate(18 18)"/>
</clipPath>
</defs>
</svg>
