<svg width="60" height="60" viewBox="0 0 60 60" fill="none" xmlns="http://www.w3.org/2000/svg">
<circle cx="30" cy="30" r="30" fill="#121212" fill-opacity="0.1"/>
<path d="M24.216 29.868C24.2166 30.2892 24.3839 30.6929 24.6813 30.9911C24.9788 31.2892 25.3822 31.4574 25.8034 31.459C25.692 31.6413 25.6321 31.8504 25.6303 32.064V32.28C25.6297 32.5468 25.7204 32.8058 25.8874 33.0138C26.0544 33.2218 26.2877 33.3664 26.5483 33.4234L28.344 38.9206C28.4113 39.1241 28.5413 39.3011 28.7154 39.4261C28.8895 39.5511 29.0988 39.6178 29.3131 39.6166H30.685C30.8993 39.6178 31.1086 39.5511 31.2827 39.4261C31.4568 39.3011 31.5868 39.1241 31.6541 38.9206L33.451 33.4224C33.7116 33.3656 33.945 33.2213 34.1122 33.0135C34.2794 32.8056 34.3703 32.5468 34.3699 32.28V32.064C34.3683 31.8502 34.308 31.6409 34.1957 31.459C34.617 31.4578 35.0207 31.2897 35.3184 30.9915C35.6161 30.6933 35.7835 30.2893 35.784 29.868V29.7744C35.7836 29.5084 35.7036 29.2485 35.5543 29.0283C35.4051 28.8081 35.1934 28.6376 34.9464 28.5386C35.1516 28.2233 35.2728 27.8608 35.2988 27.4855C35.3247 27.1102 35.2544 26.7345 35.0945 26.394C34.8732 25.9222 34.4912 25.5445 34.0169 25.3286C34.0762 25.0537 34.1061 24.7733 34.1062 24.492C34.1062 23.4029 33.6735 22.3584 32.9034 21.5883C32.1333 20.8182 31.0888 20.3856 29.9998 20.3856C28.9107 20.3856 27.8662 20.8182 27.0961 21.5883C26.326 22.3584 25.8934 23.4029 25.8934 24.492C25.8934 24.7736 25.9234 25.0544 25.9829 25.3296C25.6946 25.462 25.4383 25.6549 25.2312 25.8952C25.0242 26.1356 24.8713 26.4176 24.783 26.7223C24.6946 27.0269 24.6729 27.347 24.7193 27.6608C24.7656 27.9746 24.879 28.2747 25.0517 28.5408C24.8055 28.6399 24.5944 28.8103 24.4455 29.03C24.2967 29.2498 24.2168 29.509 24.216 29.7744V29.868ZM31.1074 38.742C31.0785 38.8305 31.022 38.9075 30.9461 38.9614C30.8702 39.0153 30.779 39.0434 30.6859 39.0415H29.3141C29.2212 39.0425 29.1303 39.0141 29.0546 38.9602C28.9789 38.9063 28.9222 38.8299 28.8926 38.7418L27.1661 33.4594H32.8339L31.1074 38.742ZM33.7939 32.28C33.7948 32.4345 33.7357 32.5832 33.6289 32.6948C33.5221 32.8065 33.3761 32.8722 33.2218 32.8781C33.2182 32.8781 33.2146 32.8793 33.211 32.8795H33.2054C33.195 32.8802 33.1846 32.8815 33.1742 32.8834H26.8258C26.8155 32.8816 26.8052 32.8805 26.7948 32.88H26.789C26.7854 32.88 26.7818 32.88 26.7782 32.8786C26.6238 32.8726 26.4777 32.8069 26.371 32.6952C26.2642 32.5834 26.205 32.4345 26.2061 32.28V32.064C26.2058 31.9815 26.2225 31.8998 26.2552 31.824C26.2879 31.7482 26.3359 31.68 26.3962 31.6236C26.5086 31.5188 26.6565 31.4604 26.8102 31.4599H33.1898C33.2658 31.4593 33.3412 31.4736 33.4116 31.5022C33.482 31.5308 33.546 31.573 33.6 31.6265C33.6612 31.6817 33.7101 31.7492 33.7434 31.8246C33.7768 31.9 33.7938 31.9816 33.7934 32.064L33.7939 32.28ZM30.0024 20.9592C30.9384 20.9609 31.8355 21.3338 32.4969 21.9961C33.1583 22.6584 33.53 23.556 33.5304 24.492C33.5304 24.7142 33.5087 24.9359 33.4656 25.1539C33.4534 25.1518 33.4399 25.151 33.4274 25.1494C33.4114 25.147 33.3946 25.1455 33.378 25.1436C33.2824 25.1318 33.1863 25.1257 33.09 25.1254C33.0489 25.1246 33.0079 25.1275 32.9674 25.134C32.5607 25.1495 32.1675 25.2835 31.836 25.5194C31.5931 25.6813 31.3859 25.8912 31.2271 26.1362C30.8629 25.8949 30.4357 25.7661 29.9988 25.7661C29.5619 25.7661 29.1347 25.8949 28.7705 26.1362C28.5665 25.8292 28.2906 25.5766 27.9668 25.4005C27.6429 25.2243 27.281 25.1299 26.9124 25.1254C26.8176 25.1257 26.7229 25.1317 26.6287 25.1431C26.611 25.1453 26.5927 25.147 26.5754 25.1496C26.5582 25.1522 26.5471 25.1522 26.5334 25.1546C26.4902 24.9364 26.4684 24.7145 26.4684 24.492C26.4695 23.5552 26.8422 22.657 27.5048 21.9947C28.1673 21.3324 29.0656 20.96 30.0024 20.9592ZM26.4106 25.7791C26.4204 25.776 26.4293 25.7705 26.4389 25.7664L26.3573 25.4959L26.4701 25.7522L26.4725 25.7575C26.7048 25.6956 26.9478 25.6851 27.1845 25.7268C27.4213 25.7686 27.646 25.8615 27.8431 25.9992C28.0973 26.1679 28.2965 26.4073 28.416 26.688C28.4343 26.7305 28.4626 26.768 28.4984 26.7972C28.5342 26.8265 28.5766 26.8467 28.6219 26.8561C28.6672 26.8655 28.7141 26.8639 28.7587 26.8513C28.8032 26.8388 28.844 26.8157 28.8778 26.784C29.1826 26.4995 29.584 26.3412 30.001 26.3412C30.4179 26.3412 30.8194 26.4995 31.1242 26.784C31.148 26.8057 31.1753 26.823 31.205 26.8354C31.212 26.8385 31.219 26.8416 31.2262 26.8442C31.2554 26.8548 31.2861 26.8606 31.3171 26.8615H31.321C31.3773 26.8614 31.4323 26.8447 31.4792 26.8136C31.5261 26.7825 31.5629 26.7383 31.585 26.6866C31.7058 26.4026 31.9075 26.1606 32.165 25.9906C32.4133 25.8132 32.7089 25.7142 33.0139 25.7062C33.0322 25.7056 33.0503 25.7034 33.0682 25.6994H33.0922C33.238 25.6971 33.3835 25.7155 33.5242 25.7542L33.552 25.7618C33.5644 25.7678 33.5773 25.7729 33.5904 25.7772C33.805 25.8443 34.0033 25.9553 34.1727 26.1031C34.342 26.251 34.4789 26.4324 34.5744 26.6359C34.6765 26.8538 34.7294 27.0914 34.7294 27.3319C34.7314 27.671 34.627 28.0022 34.4309 28.2789C34.2349 28.5555 33.957 28.7638 33.6365 28.8744C33.464 28.9448 33.2789 28.9793 33.0926 28.9759C32.6955 28.9769 32.312 28.8311 32.0158 28.5665C31.998 28.5491 31.979 28.533 31.9589 28.5185C31.8956 28.4725 31.8168 28.4529 31.7393 28.464C31.6938 28.4707 31.6504 28.4875 31.6123 28.5133C31.5742 28.539 31.5423 28.5731 31.5192 28.6128C31.5134 28.6224 31.5074 28.6334 31.5017 28.6418C31.4884 28.6583 31.4771 28.6762 31.4678 28.6951C31.357 28.9242 31.1937 29.1239 30.9913 29.2782C30.789 29.4324 30.5531 29.5369 30.3029 29.5831C30.2938 29.5846 30.2848 29.5866 30.276 29.5891C30.1868 29.6093 30.0952 29.6174 30.0038 29.6131C29.6955 29.6141 29.3932 29.5278 29.132 29.3641C28.8707 29.2004 28.6612 28.966 28.5276 28.6882C28.5196 28.6713 28.5099 28.6552 28.4988 28.6402L28.4966 28.6356C28.4887 28.62 28.4806 28.6044 28.4726 28.5902C28.4512 28.5546 28.4222 28.524 28.3878 28.5006C28.3534 28.4772 28.3143 28.4615 28.2732 28.4547C28.2322 28.4478 28.1901 28.45 28.15 28.4609C28.1098 28.4719 28.0725 28.4915 28.0406 28.5182C28.0219 28.5321 28.0042 28.5474 27.9878 28.5641C27.6944 28.8319 27.3109 28.9795 26.9136 28.9776C26.5225 28.9787 26.144 28.8398 25.8463 28.5862C25.5487 28.3325 25.3517 27.9807 25.2908 27.5944C25.2299 27.2081 25.3092 26.8127 25.5144 26.4798C25.7196 26.1469 26.0371 25.8984 26.4096 25.7791H26.4106ZM24.792 29.7744C24.7913 29.587 24.8608 29.4061 24.9868 29.2673C25.1129 29.1285 25.2862 29.042 25.4729 29.0246C25.4849 29.0347 25.4969 29.0436 25.5101 29.0537C25.5326 29.0719 25.5554 29.0897 25.5787 29.1072C25.6107 29.1309 25.6427 29.1538 25.6747 29.1761C25.6987 29.1922 25.7227 29.2078 25.7467 29.2241C25.7801 29.2447 25.8142 29.2642 25.8485 29.2829C25.8725 29.2968 25.8989 29.3105 25.9248 29.3232C25.9598 29.3407 25.9968 29.3566 26.0318 29.3712C26.0582 29.3825 26.0842 29.394 26.1108 29.4043C26.148 29.4187 26.1857 29.431 26.2236 29.4434C26.2502 29.4521 26.2766 29.4612 26.3038 29.4689C26.3434 29.4802 26.3839 29.489 26.4238 29.4982C26.4497 29.5039 26.4754 29.5106 26.5018 29.5154C26.5466 29.5238 26.592 29.5294 26.6376 29.5351C26.6602 29.5378 26.6822 29.5418 26.705 29.544C26.7734 29.5502 26.8423 29.5538 26.9119 29.5538C27.3492 29.5542 27.7765 29.4229 28.1381 29.177C28.3381 29.4897 28.6138 29.7467 28.9398 29.9241C29.2657 30.1016 29.6313 30.1937 30.0024 30.192C30.1419 30.196 30.2812 30.1816 30.4169 30.149C30.7105 30.0931 30.9897 29.9779 31.2373 29.8105C31.4848 29.643 31.6957 29.4268 31.8569 29.1751C32.2208 29.4225 32.6509 29.5545 33.091 29.5538C33.3488 29.558 33.6048 29.51 33.8436 29.4127C33.911 29.3887 33.9766 29.3616 34.0409 29.3316C34.0625 29.3218 34.0829 29.31 34.1042 29.2992C34.1465 29.2778 34.1885 29.2558 34.2295 29.2315C34.2535 29.2174 34.2758 29.2022 34.2986 29.1874C34.3361 29.1634 34.3728 29.1394 34.4086 29.1118C34.4311 29.0952 34.4532 29.0779 34.475 29.0602C34.4914 29.0472 34.5086 29.0362 34.5247 29.022C34.7117 29.0402 34.8852 29.1274 35.0115 29.2664C35.1378 29.4055 35.2078 29.5866 35.208 29.7744V29.868C35.2077 30.1372 35.1006 30.3952 34.9103 30.5855C34.72 30.7758 34.462 30.8829 34.1928 30.8832H25.8072C25.5381 30.8829 25.28 30.7758 25.0897 30.5855C24.8994 30.3952 24.7923 30.1372 24.792 29.868V29.7744Z" fill="black"/>
<path d="M26.4705 25.752C26.4607 25.7578 26.4497 25.7614 26.4393 25.7662C26.4502 25.7627 26.4607 25.7579 26.4705 25.752Z" fill="black"/>
</svg>
