<svg width="24" height="24" viewBox="0 0 24 24" fill="none" xmlns="http://www.w3.org/2000/svg">
<g clip-path="url(#clip0_11_4828)">
<path d="M12 24C18.6274 24 24 18.6274 24 12C24 5.37258 18.6274 0 12 0C5.37258 0 0 5.37258 0 12C0 18.6274 5.37258 24 12 24Z" fill="#F85559"/>
<path d="M19.7731 7.17948C19.1885 7.43484 18.57 7.60448 17.9368 7.68317C18.6043 7.28738 19.1032 6.66035 19.3389 5.92106C18.7142 6.29185 18.0307 6.55299 17.3179 6.69317C16.8811 6.22603 16.3138 5.90115 15.6899 5.76078C15.066 5.6204 14.4142 5.67103 13.8194 5.90608C13.2247 6.14113 12.7144 6.54972 12.355 7.0787C11.9956 7.60768 11.8037 8.23258 11.8042 8.87211C11.802 9.11622 11.8268 9.35982 11.8784 9.59843C10.6105 9.53615 9.36993 9.20709 8.23783 8.63274C7.10572 8.05839 6.10752 7.25167 5.30841 6.26527C4.89766 6.96697 4.77041 7.79905 4.95266 8.59143C5.13491 9.38382 5.6129 10.0767 6.28894 10.5284C5.78434 10.5148 5.29043 10.38 4.84894 10.1353V10.17C4.85036 10.9055 5.10494 11.6181 5.5699 12.188C6.03486 12.7579 6.68184 13.1504 7.40209 13.2995C7.12952 13.3711 6.84864 13.4061 6.56683 13.4037C6.36391 13.4074 6.16118 13.3894 5.96209 13.35C6.16844 13.9826 6.56571 14.5357 7.09926 14.9332C7.6328 15.3307 8.27641 15.5532 8.94157 15.57C7.81439 16.451 6.42484 16.9296 4.9942 16.9295C4.73929 16.9317 4.48452 16.9169 4.23157 16.8853C5.69031 17.8258 7.39066 18.3227 9.1263 18.3158C14.9921 18.3158 18.1989 13.4574 18.1989 9.24632C18.1989 9.1058 18.1989 8.97001 18.1879 8.83422C18.8124 8.38349 19.3496 7.82276 19.7731 7.17948Z" fill="white"/>
</g>
<defs>
<clipPath id="clip0_11_4828">
<rect width="24" height="24" fill="white"/>
</clipPath>
</defs>
</svg>
